<svg width="40" height="40" viewBox="0 0 40 40" fill="none" xmlns="http://www.w3.org/2000/svg">
<path opacity="0.2" d="M39.8915 20.0003C39.8915 30.9879 30.9846 39.8951 19.9972 39.8951C9.00961 39.8951 0.102539 30.9879 0.102539 20.0003C0.102539 9.0129 9.00961 0.105835 19.9972 0.105835C30.9845 0.105835 39.8915 9.0129 39.8915 20.0003Z" fill="#00A478"/>
<path d="M17.9569 19.652V16.1716H13.2363V13.1208H26.4275V16.2145H21.7069V19.652H17.9569Z" fill="#00A478"/>
<path fill-rule="evenodd" clip-rule="evenodd" d="M11.207 20.0388C11.207 18.8786 15.0011 17.9333 19.7217 17.9333C24.4423 17.9333 28.2364 18.8786 28.2364 20.0388C28.2364 21.1989 24.4423 22.1442 19.7217 22.1442C15.0011 22.1442 11.207 21.1989 11.207 20.0388ZM27.5306 20.0388C27.2217 19.6091 24.6629 18.277 19.7217 18.277C14.7806 18.277 12.2217 19.5661 11.9129 20.0388C12.2217 20.4684 14.7806 21.113 19.7217 21.113C24.707 21.113 27.2217 20.4684 27.5306 20.0388Z" fill="#00A478"/>
<path d="M21.7066 20.7263V18.32C21.089 18.277 20.4272 18.2341 19.7654 18.2341C19.1478 18.2341 18.5743 18.2341 18.0007 18.277V20.6833C18.5301 20.6833 19.1478 20.7263 19.7654 20.7263C20.4272 20.7692 21.089 20.7692 21.7066 20.7263Z" fill="#00A478"/>
<path d="M19.7215 22.1442C19.1038 22.1442 18.5303 22.1442 17.9568 22.1013V28.5036H21.6627V22.0583C21.045 22.1013 20.3833 22.1442 19.7215 22.1442Z" fill="#00A478"/>
</svg>
