<svg width="40" height="40" viewBox="0 0 40 40" fill="none" xmlns="http://www.w3.org/2000/svg">
<path opacity="0.2" d="M39.4 24.8385C36.7287 35.5529 25.8762 42.0729 15.1606 39.4016C4.44999 36.7304 -2.07064 25.8779 0.601238 15.1641C3.27124 4.4485 14.1231 -2.07275 24.8356 0.598497C35.5506 3.26975 42.0706 14.1235 39.3994 24.8385H39.4Z" fill="#F7931A"/>
<path fill-rule="evenodd" clip-rule="evenodd" d="M26.0235 17.6765C26.2931 15.8711 24.9185 14.9006 23.039 14.2532L23.6487 11.8076L22.1596 11.4366L21.5661 13.8177C21.1751 13.7202 20.7732 13.6282 20.3738 13.537L20.9716 11.1402L19.4838 10.7692L18.8737 13.214C18.5498 13.1402 18.2318 13.0673 17.9231 12.9905L17.9248 12.9829L15.8719 12.4703L15.4758 14.0602C15.4758 14.0602 16.5803 14.3134 16.557 14.3291C17.1599 14.4796 17.2693 14.8785 17.2507 15.1948L16.5562 17.9809C16.5977 17.9915 16.6516 18.0068 16.7109 18.0305L16.5541 17.9915L15.5801 21.8943C15.5064 22.0775 15.3194 22.3522 14.8979 22.2479C14.9128 22.2696 13.8159 21.9778 13.8159 21.9778L13.0769 23.6823L15.0145 24.1652C15.2333 24.22 15.4494 24.2764 15.6631 24.3322L15.6632 24.3322C15.8015 24.3683 15.9389 24.4041 16.0754 24.4391L15.4593 26.9131L16.9462 27.2841L17.5568 24.8368C17.9626 24.9471 18.3569 25.0488 18.7427 25.1446L18.1347 27.5805L19.6233 27.9515L20.2394 25.4826C22.7778 25.9629 24.687 25.7692 25.4897 23.4737C26.1371 21.6251 25.4579 20.5588 24.1223 19.863C25.0949 19.6378 25.8276 18.998 26.023 17.6765H26.0235ZM22.6219 22.446C22.1992 24.1426 19.543 23.4406 18.3287 23.1197L18.3286 23.1197C18.2199 23.0909 18.1227 23.0653 18.0398 23.0446L18.8572 19.7676C18.9587 19.7929 19.0826 19.8207 19.2229 19.8522C20.4791 20.1341 23.0536 20.7118 22.6223 22.446H22.6219ZM19.4754 18.3315C20.4886 18.6018 22.6971 19.191 23.0819 17.6498C23.4752 16.073 21.3276 15.5977 20.2788 15.3656C20.1609 15.3395 20.0569 15.3165 19.9719 15.2953L19.2308 18.2675C19.3009 18.285 19.3832 18.3069 19.4754 18.3315Z" fill="#F7931A"/>
</svg>
