<svg width="40" height="40" viewBox="0 0 40 40" fill="none" xmlns="http://www.w3.org/2000/svg">
<path d="M39.8915 20.0004C39.8915 30.9879 30.9846 39.8951 19.9972 39.8951C9.00961 39.8951 0.102539 30.9879 0.102539 20.0004C0.102539 9.01297 9.00961 0.105896 19.9972 0.105896C30.9845 0.105896 39.8915 9.01297 39.8915 20.0004Z" fill="#637DEB"/>
<g opacity="0.8">
<path d="M19.9337 10.7692L19.8108 11.1869V23.3066L19.9337 23.4292L25.5595 20.1038L19.9337 10.7692Z" fill="white"/>
<path d="M19.9337 10.7692L14.3079 20.1038L19.9337 23.4293V17.5468V10.7692Z" fill="white"/>
<path d="M19.9335 25.2596L19.8643 25.344V29.6613L19.9335 29.8635L25.5627 21.9359L19.9335 25.2596Z" fill="white"/>
<path d="M19.9337 29.8636V25.2596L14.3079 21.9359L19.9337 29.8636Z" fill="white"/>
<path d="M19.9336 23.4292L25.5593 20.1038L19.9336 17.5468V23.4292Z" fill="white"/>
<path d="M14.3079 20.1038L19.9336 23.4292V17.5468L14.3079 20.1038Z" fill="white"/>
</g>
</svg>
