<svg width="163" height="48" viewBox="0 0 163 48" fill="none" xmlns="http://www.w3.org/2000/svg">
<path d="M50.0452 21.3398C50.0452 22.4784 49.7839 23.5236 49.2612 24.4756C48.7386 25.4088 47.936 26.1648 46.8534 26.7434C45.7709 27.322 44.427 27.6113 42.8218 27.6113H39.854V34.6667H35.0664V15.0124H42.8218C44.3896 15.0124 45.7149 15.283 46.7974 15.8243C47.88 16.3656 48.6919 17.1122 49.2332 18.0641C49.7745 19.016 50.0452 20.1079 50.0452 21.3398ZM42.4578 23.8036C43.3724 23.8036 44.0537 23.589 44.5016 23.1597C44.9496 22.7304 45.1736 22.1238 45.1736 21.3398C45.1736 20.5559 44.9496 19.9493 44.5016 19.52C44.0537 19.0907 43.3724 18.876 42.4578 18.876H39.854V23.8036H42.4578ZM50.1858 26.8274C50.1858 25.2222 50.4845 23.813 51.0817 22.5997C51.6977 21.3865 52.5283 20.4532 53.5735 19.8C54.6188 19.1467 55.7853 18.82 57.0732 18.82C58.1745 18.82 59.1357 19.044 59.957 19.492C60.7969 19.9399 61.4409 20.5279 61.8888 21.2558V19.044H66.6764V34.6667H61.8888V32.4549C61.4222 33.1828 60.7689 33.7708 59.929 34.2188C59.1077 34.6667 58.1465 34.8907 57.0452 34.8907C55.776 34.8907 54.6188 34.5641 53.5735 33.9108C52.5283 33.2388 51.6977 32.2962 51.0817 31.083C50.4845 29.8511 50.1858 28.4326 50.1858 26.8274ZM61.8888 26.8554C61.8888 25.6608 61.5529 24.7182 60.8809 24.0276C60.2276 23.337 59.425 22.9917 58.4731 22.9917C57.5212 22.9917 56.7093 23.337 56.0373 24.0276C55.384 24.6996 55.0574 25.6328 55.0574 26.8274C55.0574 28.0219 55.384 28.9739 56.0373 29.6831C56.7093 30.3737 57.5212 30.719 58.4731 30.719C59.425 30.719 60.2276 30.3737 60.8809 29.6831C61.5529 28.9925 61.8888 28.0499 61.8888 26.8554ZM73.5278 13.9484V34.6667H68.7402V13.9484H73.5278ZM85.6206 34.6667L81.5329 27.2473H80.385V34.6667H75.5974V15.0124H83.6327C85.1819 15.0124 86.4978 15.283 87.5804 15.8243C88.6816 16.3656 89.5029 17.1122 90.0442 18.0641C90.5855 18.9974 90.8561 20.0426 90.8561 21.1998C90.8561 22.5064 90.4828 23.673 89.7362 24.6996C89.0083 25.7261 87.9257 26.4541 86.4885 26.8834L91.0241 34.6667H85.6206ZM80.385 23.8596H83.3528C84.23 23.8596 84.8833 23.645 85.3126 23.2157C85.7606 22.7864 85.9845 22.1798 85.9845 21.3958C85.9845 20.6492 85.7606 20.0613 85.3126 19.632C84.8833 19.2027 84.23 18.988 83.3528 18.988H80.385V23.8596ZM107.188 26.6034C107.188 27.0514 107.16 27.518 107.104 28.0033H96.2693C96.344 28.9739 96.6519 29.7205 97.1932 30.2431C97.7532 30.747 98.4345 30.999 99.2371 30.999C100.432 30.999 101.262 30.4951 101.729 29.4872H106.824C106.563 30.5137 106.087 31.4377 105.397 32.2589C104.725 33.0802 103.875 33.7241 102.849 34.1908C101.822 34.6574 100.674 34.8907 99.405 34.8907C97.8745 34.8907 96.512 34.5641 95.3174 33.9108C94.1228 33.2575 93.1896 32.3242 92.5176 31.111C91.8457 29.8978 91.5097 28.4792 91.5097 26.8554C91.5097 25.2315 91.8363 23.813 92.4896 22.5997C93.1616 21.3865 94.0948 20.4532 95.2894 19.8C96.484 19.1467 97.8558 18.82 99.405 18.82C100.917 18.82 102.261 19.1373 103.437 19.772C104.613 20.4066 105.527 21.3118 106.18 22.4877C106.852 23.6636 107.188 25.0355 107.188 26.6034ZM102.289 25.3435C102.289 24.5222 102.009 23.869 101.449 23.3837C100.889 22.8984 100.189 22.6557 99.349 22.6557C98.5464 22.6557 97.8652 22.889 97.3052 23.3557C96.7639 23.8223 96.428 24.4849 96.2973 25.3435H102.289ZM128.249 18.876C130.19 18.876 131.73 19.464 132.868 20.6399C134.025 21.8158 134.604 23.449 134.604 25.5395V34.6667H129.844V26.1834C129.844 25.1755 129.574 24.4009 129.032 23.8596C128.51 23.2997 127.782 23.0197 126.849 23.0197C125.915 23.0197 125.178 23.2997 124.637 23.8596C124.114 24.4009 123.853 25.1755 123.853 26.1834V34.6667H119.093V26.1834C119.093 25.1755 118.823 24.4009 118.281 23.8596C117.759 23.2997 117.031 23.0197 116.098 23.0197C115.164 23.0197 114.427 23.2997 113.886 23.8596C113.363 24.4009 113.102 25.1755 113.102 26.1834V34.6667H108.314V19.044H113.102V21.0039C113.587 20.3506 114.222 19.8373 115.006 19.464C115.79 19.072 116.676 18.876 117.665 18.876C118.841 18.876 119.887 19.128 120.801 19.632C121.734 20.1359 122.462 20.8545 122.985 21.7878C123.526 20.9292 124.264 20.2293 125.197 19.688C126.13 19.1467 127.147 18.876 128.249 18.876ZM138.96 17.4202C138.12 17.4202 137.43 17.1775 136.888 16.6922C136.366 16.1883 136.105 15.5723 136.105 14.8444C136.105 14.0978 136.366 13.4818 136.888 12.9965C137.43 12.4926 138.12 12.2406 138.96 12.2406C139.782 12.2406 140.453 12.4926 140.976 12.9965C141.517 13.4818 141.788 14.0978 141.788 14.8444C141.788 15.5723 141.517 16.1883 140.976 16.6922C140.453 17.1775 139.782 17.4202 138.96 17.4202ZM141.34 19.044V34.6667H136.552V19.044H141.34ZM152.117 30.6071V34.6667H149.681C147.945 34.6667 146.592 34.2468 145.622 33.4068C144.651 32.5482 144.166 31.1577 144.166 29.2352V23.0197H142.262V19.044H144.166V15.2363H148.953V19.044H152.089V23.0197H148.953V29.2912C148.953 29.7578 149.065 30.0938 149.289 30.2991C149.513 30.5044 149.886 30.6071 150.409 30.6071H152.117Z" fill="#074842"/>
<path d="M7.46606 29.2648C7.46606 30.7375 8.65987 31.9313 10.1325 31.9313H16.532C22.128 31.9313 26.6645 27.3948 26.6645 21.7988C26.6645 16.2028 22.128 11.6663 16.532 11.6663H10.1325C8.65987 11.6663 7.46606 12.8601 7.46606 14.3327C7.46606 15.8054 8.65987 16.9992 10.1325 16.9992H16.532C19.1827 16.9992 21.3316 19.148 21.3316 21.7988C21.3316 24.4495 19.1827 26.5984 16.532 26.5984H10.1325C8.65987 26.5984 7.46606 27.7922 7.46606 29.2648Z" fill="#BFA600"/>
<path d="M9.5992 19.1325H16.5319C18.0046 19.1325 19.1984 20.3263 19.1984 21.7989C19.1984 23.2716 18.0046 24.4654 16.5319 24.4654H9.5992C7.24298 24.4654 5.33289 26.3755 5.33289 28.7317V34.0646C5.33289 36.4208 3.42279 38.3309 1.06658 38.3309H0V28.7317C0 23.4302 4.29771 19.1325 9.5992 19.1325Z" fill="#D1B725"/>
<path d="M155.652 16.346V12.3279H157.579C157.782 12.3279 157.978 12.3769 158.167 12.4749C158.359 12.5693 158.517 12.7108 158.641 12.8996C158.768 13.0847 158.831 13.3134 158.831 13.5856C158.831 13.8578 158.766 14.0938 158.635 14.2934C158.508 14.4894 158.345 14.6401 158.145 14.7453C157.949 14.8506 157.746 14.9032 157.535 14.9032H156.044V14.3533H157.35C157.535 14.3533 157.701 14.288 157.846 14.1573C157.995 14.023 158.069 13.8324 158.069 13.5856C158.069 13.3315 157.995 13.15 157.846 13.0412C157.701 12.9323 157.541 12.8778 157.367 12.8778H156.354V16.346H155.652ZM157.993 14.4785L158.995 16.346H158.211L157.236 14.4785H157.993ZM157.127 18.7417C156.524 18.7417 155.96 18.6292 155.434 18.4041C154.907 18.1791 154.445 17.8669 154.045 17.4676C153.646 17.0684 153.334 16.6056 153.109 16.0793C152.884 15.5529 152.771 14.9885 152.771 14.386C152.771 13.7834 152.884 13.219 153.109 12.6927C153.334 12.1664 153.646 11.7036 154.045 11.3043C154.445 10.9051 154.907 10.5929 155.434 10.3678C155.96 10.1428 156.524 10.0303 157.127 10.0303C157.73 10.0303 158.294 10.1428 158.82 10.3678C159.347 10.5929 159.809 10.9051 160.209 11.3043C160.608 11.7036 160.92 12.1664 161.145 12.6927C161.37 13.219 161.483 13.7834 161.483 14.386C161.483 14.9885 161.37 15.5529 161.145 16.0793C160.92 16.6056 160.608 17.0684 160.209 17.4676C159.809 17.8669 159.347 18.1791 158.82 18.4041C158.294 18.6292 157.73 18.7417 157.127 18.7417ZM157.127 17.9304C157.78 17.9304 158.374 17.7707 158.907 17.4513C159.445 17.1319 159.873 16.7054 160.192 16.1718C160.512 15.6346 160.671 15.0393 160.671 14.386C160.671 13.7326 160.512 13.1392 160.192 12.6056C159.873 12.0684 159.445 11.6401 158.907 11.3207C158.374 11.0012 157.78 10.8415 157.127 10.8415C156.474 10.8415 155.878 11.0012 155.341 11.3207C154.808 11.6401 154.381 12.0684 154.062 12.6056C153.742 13.1392 153.583 13.7326 153.583 14.386C153.583 15.0393 153.742 15.6346 154.062 16.1718C154.381 16.7054 154.808 17.1319 155.341 17.4513C155.878 17.7707 156.474 17.9304 157.127 17.9304Z" fill="#9FB7B4"/>
</svg>
