<svg width="27" height="27" viewBox="0 0 27 27" fill="none" xmlns="http://www.w3.org/2000/svg">
<path d="M7.46606 17.5982C7.46606 19.0709 8.65987 20.2647 10.1325 20.2647H16.532C22.128 20.2647 26.6645 15.7282 26.6645 10.1322C26.6645 4.53618 22.128 -0.000289917 16.532 -0.000289917H10.1325C8.65987 -0.000289917 7.46606 1.19352 7.46606 2.66615C7.46606 4.13879 8.65987 5.3326 10.1325 5.3326H16.532C19.1827 5.3326 21.3316 7.48145 21.3316 10.1322C21.3316 12.7829 19.1827 14.9318 16.532 14.9318H10.1325C8.65987 14.9318 7.46606 16.1256 7.46606 17.5982Z" fill="#BFA600"/>
<path d="M9.5992 7.4659H16.5319C18.0046 7.4659 19.1984 8.6597 19.1984 10.1323C19.1984 11.605 18.0046 12.7988 16.5319 12.7988H9.5992C7.24298 12.7988 5.33289 14.7089 5.33289 17.0651V22.398C5.33289 24.7542 3.42279 26.6643 1.06658 26.6643H0V17.0651C0 11.7636 4.29771 7.4659 9.5992 7.4659Z" fill="#D1B725"/>
</svg>
