<svg width="157" height="128" viewBox="0 0 157 128" fill="none" xmlns="http://www.w3.org/2000/svg">
<rect x="30" y="20" width="21" height="5" rx="2.5" fill="#074741"/>
<path fill-rule="evenodd" clip-rule="evenodd" d="M24.8913 7.8913C27.3829 5.39974 30.7621 4 34.2857 4H140.571C144.095 4 147.474 5.39974 149.966 7.8913C152.457 10.3829 153.857 13.7621 153.857 17.2857V88.1429C153.857 91.6665 152.457 95.0457 149.966 97.5373C147.474 100.029 144.095 101.429 140.571 101.429H34.2857C31.8853 101.429 29.5519 100.779 27.5205 99.5771C27.8296 98.9363 28 98.235 28 97.5C28 94.4829 25.1288 92.0331 21.5723 92.0003C21.1962 90.7607 21 89.4619 21 88.1429V17.2857C21 13.7621 22.3997 10.3829 24.8913 7.8913ZM118.429 128H56.4286V119.143H118.429V128ZM32 9C29.2386 9 27 11.2386 27 14V63C27 65.7614 29.2386 68 32 68H50C52.7614 68 55 65.7614 55 63V14C55 11.2386 52.7614 9 50 9H32ZM66 23C63.7909 23 62 24.7909 62 27V38C62 40.2091 63.7909 42 66 42H139C141.209 42 143 40.2091 143 38V27C143 24.7909 141.209 23 139 23H66ZM62 51C62 48.7909 63.7909 47 66 47H139C141.209 47 143 48.7909 143 51C143 53.2091 141.209 55 139 55H66C63.7909 55 62 53.2091 62 51ZM66 61C63.7909 61 62 62.7909 62 65C62 67.2091 63.7909 69 66 69H123C125.209 69 127 67.2091 127 65C127 62.7909 125.209 61 123 61H66Z" fill="#DCECE1"/>
<rect x="30" y="31" width="21" height="5" rx="2.5" fill="#074741"/>
<rect x="30" y="42" width="21" height="5" rx="2.5" fill="#074741"/>
<rect x="30" y="53" width="21" height="5" rx="2.5" fill="#074741"/>
<path fill-rule="evenodd" clip-rule="evenodd" d="M35 1H140C148.837 1 156 8.16344 156 17V88C156 96.8366 148.837 104 140 104H34C30.9927 104 28.192 103.115 25.8443 101.591C25.5586 101.809 25.25 102.005 24.9219 102.177C27.5012 103.957 30.6288 105 34 105H140C149.389 105 157 97.3888 157 88V17C157 7.61116 149.389 0 140 0H35C25.6112 0 18 7.61116 18 17V89C18 90.2577 18.1451 91.4816 18.4195 92.6557C18.7212 92.5181 19.0371 92.4 19.365 92.3036C19.1261 91.2407 19 90.135 19 89V17C19 8.16344 26.1634 1 35 1Z" fill="#074842"/>
<path fill-rule="evenodd" clip-rule="evenodd" d="M21.3722 70.4468C27.1061 70.4468 30.7994 75.6533 30.8762 82.11H11.8682C11.9454 75.6533 15.6382 70.4468 21.3722 70.4468ZM21.3722 64C12.438 64 5.19869 72.1833 5.19869 82.2769L5.20247 82.5303C2.16379 83.4935 0 86.0102 0 88.9636V105.039C0 112.198 9.56937 118 21.3722 118C33.1754 118 42.7453 112.198 42.7453 105.039V88.9636C42.7453 86.0102 40.5805 83.4935 37.5423 82.5303L37.5461 82.2769C37.5461 72.1833 30.3063 64 21.3722 64ZM15.3071 97.3138C15.3071 94.4235 18.0218 92.0802 21.3722 92.0802C24.7225 92.0802 27.4372 94.4235 27.4372 97.3138C27.4372 99.1638 26.3245 100.791 24.6453 101.722V106.536H18.099V101.722C16.4198 100.791 15.3071 99.1638 15.3071 97.3138Z" fill="#074741"/>
</svg>
