<svg width="40" height="40" viewBox="0 0 40 40" fill="none" xmlns="http://www.w3.org/2000/svg">
<g clip-path="url(#clip0_142_4258)">
<rect width="40" height="40" rx="20" fill="#D2D2D2"/>
<mask id="mask0_142_4258" style="mask-type:luminance" maskUnits="userSpaceOnUse" x="-8" y="0" width="55" height="42">
<rect x="-7.40918" y="0.370453" width="54.3333" height="40.75" fill="white"/>
</mask>
<g mask="url(#mask0_142_4258)">
<path fill-rule="evenodd" clip-rule="evenodd" d="M-7.40918 0.370453H46.9242V41.1205H-7.40918V0.370453Z" fill="#F7FCFF"/>
<path fill-rule="evenodd" clip-rule="evenodd" d="M-7.40918 25.2733V28.6691H46.9242V25.2733H-7.40918Z" fill="#E31D1C"/>
<path fill-rule="evenodd" clip-rule="evenodd" d="M-7.40918 31.4989V34.8947H46.9242V31.4989H-7.40918Z" fill="#E31D1C"/>
<path fill-rule="evenodd" clip-rule="evenodd" d="M-7.40918 12.8218V16.2177H46.9242V12.8218H-7.40918Z" fill="#E31D1C"/>
<path fill-rule="evenodd" clip-rule="evenodd" d="M-7.40918 37.7246V41.1204H46.9242V37.7246H-7.40918Z" fill="#E31D1C"/>
<path fill-rule="evenodd" clip-rule="evenodd" d="M-7.40918 19.0475V22.4434H46.9242V19.0475H-7.40918Z" fill="#E31D1C"/>
<path fill-rule="evenodd" clip-rule="evenodd" d="M-7.40918 0.370453V3.76629H46.9242V0.370453H-7.40918Z" fill="#E31D1C"/>
<path fill-rule="evenodd" clip-rule="evenodd" d="M-7.40918 6.59616V9.99199H46.9242V6.59616H-7.40918Z" fill="#E31D1C"/>
<rect x="-7.40918" y="0.370453" width="33.9583" height="22.0729" fill="#2E42A5"/>
<path fill-rule="evenodd" clip-rule="evenodd" d="M-4.48543 5.36005L-5.71791 6.2241L-5.30181 4.68645L-6.39648 3.712H-4.96669L-4.48715 2.45712L-3.92485 3.712H-2.70599L-3.66367 4.68645L-3.29292 6.2241L-4.48543 5.36005ZM2.30624 5.36005L1.07376 6.2241L1.48986 4.68645L0.395182 3.712H1.82498L2.30452 2.45712L2.86682 3.712H4.08568L3.12799 4.68645L3.49875 6.2241L2.30624 5.36005ZM7.86542 6.2241L9.09791 5.36005L10.2904 6.2241L9.91966 4.68645L10.8773 3.712H9.65848L9.09618 2.45712L8.61664 3.712H7.18685L8.28152 4.68645L7.86542 6.2241ZM15.8896 5.36005L14.6571 6.2241L15.0732 4.68645L13.9785 3.712H15.4083L15.8878 2.45712L16.4502 3.712H17.669L16.7113 4.68645L17.0821 6.2241L15.8896 5.36005ZM-5.71791 13.0158L-4.48543 12.1517L-3.29292 13.0158L-3.66367 11.4781L-2.70599 10.5037H-3.92485L-4.48715 9.24879L-4.96669 10.5037H-6.39648L-5.30181 11.4781L-5.71791 13.0158ZM2.30624 12.1517L1.07376 13.0158L1.48986 11.4781L0.395182 10.5037H1.82498L2.30452 9.24879L2.86682 10.5037H4.08568L3.12799 11.4781L3.49875 13.0158L2.30624 12.1517ZM7.86542 13.0158L9.09791 12.1517L10.2904 13.0158L9.91966 11.4781L10.8773 10.5037H9.65848L9.09618 9.24879L8.61664 10.5037H7.18685L8.28152 11.4781L7.86542 13.0158ZM15.8896 12.1517L14.6571 13.0158L15.0732 11.4781L13.9785 10.5037H15.4083L15.8878 9.24879L16.4502 10.5037H17.669L16.7113 11.4781L17.0821 13.0158L15.8896 12.1517ZM-5.71791 19.8074L-4.48543 18.9434L-3.29292 19.8074L-3.66367 18.2698L-2.70599 17.2953H-3.92485L-4.48715 16.0405L-4.96669 17.2953H-6.39648L-5.30181 18.2698L-5.71791 19.8074ZM2.30624 18.9434L1.07376 19.8074L1.48986 18.2698L0.395182 17.2953H1.82498L2.30452 16.0405L2.86682 17.2953H4.08568L3.12799 18.2698L3.49875 19.8074L2.30624 18.9434ZM7.86542 19.8074L9.09791 18.9434L10.2904 19.8074L9.91966 18.2698L10.8773 17.2953H9.65848L9.09618 16.0405L8.61664 17.2953H7.18685L8.28152 18.2698L7.86542 19.8074ZM15.8896 18.9434L14.6571 19.8074L15.0732 18.2698L13.9785 17.2953H15.4083L15.8878 16.0405L16.4502 17.2953H17.669L16.7113 18.2698L17.0821 19.8074L15.8896 18.9434ZM21.4488 6.2241L22.6812 5.36005L23.8738 6.2241L23.503 4.68645L24.4607 3.712H23.2418L22.6795 2.45712L22.2 3.712H20.7702L21.8649 4.68645L21.4488 6.2241ZM22.6812 12.1517L21.4488 13.0158L21.8649 11.4781L20.7702 10.5037H22.2L22.6795 9.24879L23.2418 10.5037H24.4607L23.503 11.4781L23.8738 13.0158L22.6812 12.1517ZM21.4488 19.8074L22.6812 18.9434L23.8738 19.8074L23.503 18.2698L24.4607 17.2953H23.2418L22.6795 16.0405L22.2 17.2953H20.7702L21.8649 18.2698L21.4488 19.8074ZM-1.08959 8.75589L-2.32208 9.61994L-1.90598 8.08229L-3.00065 7.10783H-1.57086L-1.09132 5.85296L-0.529015 7.10783H0.689845L-0.267842 8.08229L0.102918 9.61994L-1.08959 8.75589ZM4.46959 9.61994L5.70207 8.75589L6.89458 9.61994L6.52382 8.08229L7.48151 7.10783H6.26265L5.70035 5.85296L5.22081 7.10783H3.79102L4.88569 8.08229L4.46959 9.61994ZM12.4937 8.75589L11.2613 9.61994L11.6774 8.08229L10.5827 7.10783H12.0125L12.492 5.85296L13.0543 7.10783H14.2732L13.3155 8.08229L13.6863 9.61994L12.4937 8.75589ZM-2.32208 16.4116L-1.08959 15.5476L0.102918 16.4116L-0.267842 14.874L0.689845 13.8995H-0.529015L-1.09132 12.6446L-1.57086 13.8995H-3.00065L-1.90598 14.874L-2.32208 16.4116ZM5.70207 15.5476L4.46959 16.4116L4.88569 14.874L3.79102 13.8995H5.22081L5.70035 12.6446L6.26265 13.8995H7.48151L6.52382 14.874L6.89458 16.4116L5.70207 15.5476ZM11.2613 16.4116L12.4937 15.5476L13.6863 16.4116L13.3155 14.874L14.2732 13.8995H13.0543L12.492 12.6446L12.0125 13.8995H10.5827L11.6774 14.874L11.2613 16.4116ZM19.2854 8.75589L18.0529 9.61994L18.469 8.08229L17.3743 7.10783H18.8041L19.2837 5.85296L19.846 7.10783H21.0648L20.1072 8.08229L20.4779 9.61994L19.2854 8.75589ZM18.0529 16.4116L19.2854 15.5476L20.4779 16.4116L20.1072 14.874L21.0648 13.8995H19.846L19.2837 12.6446L18.8041 13.8995H17.3743L18.469 14.874L18.0529 16.4116Z" fill="#F7FCFF"/>
</g>
</g>
<defs>
<clipPath id="clip0_142_4258">
<rect width="40" height="40" rx="20" fill="white"/>
</clipPath>
</defs>
</svg>
