<svg width="19" height="19" viewBox="0 0 19 19" fill="none" xmlns="http://www.w3.org/2000/svg">
<path d="M4.5 15.5V13.5ZM9.5 15.5V12.5ZM14.5 15.5V10.5ZM0 9.5C0 5.022 0 2.782 1.391 1.391C2.782 0 5.021 0 9.5 0C13.978 0 16.218 0 17.609 1.391C19 2.782 19 5.021 19 9.5C19 13.978 19 16.218 17.609 17.609C16.218 19 13.979 19 9.5 19C5.022 19 2.782 19 1.391 17.609C0 16.218 0 13.979 0 9.5Z" fill="#181717"/>
<path d="M3.49219 12.986C5.64719 13.058 10.5342 12.733 13.3142 8.32097M11.4922 7.78797L13.3682 7.48597C13.5962 7.45697 13.9322 7.63797 14.0152 7.85297L14.5102 9.49097" stroke="white" stroke-width="1.5" stroke-linecap="round" stroke-linejoin="round"/>
</svg>
