<svg width="27" height="26" viewBox="0 0 27 26" fill="none" xmlns="http://www.w3.org/2000/svg">
<mask id="mask0_243_807" style="mask-type:luminance" maskUnits="userSpaceOnUse" x="0" y="0" width="27" height="26">
<path d="M15.8303 0.75H10.5535C5.57887 0.75 3.09087 0.75 1.54609 2.54462C0.432695 3.83547 0.121366 5.69441 0.034299 8.78906H26.3496C26.2625 5.69441 25.9512 3.83547 24.8378 2.54462C23.293 0.75 20.805 0.75 15.8303 0.75ZM10.5535 25.25H15.8303C20.805 25.25 23.293 25.25 24.8378 23.4554C26.3839 21.6623 26.3839 18.7743 26.3839 13C26.3839 12.3232 26.3839 11.6862 26.3812 11.0859H0.00263851C1.23167e-07 11.6862 0 12.3232 0 13C0 18.7743 -1.5726e-07 21.6623 1.54609 23.4554C3.09087 25.25 5.57887 25.25 10.5535 25.25Z" fill="white"/>
<path fill-rule="evenodd" clip-rule="evenodd" d="M4.28687 19.1255C4.28687 18.821 4.3911 18.5289 4.57665 18.3135C4.7622 18.0981 5.01386 17.9771 5.27626 17.9771H10.553C10.8154 17.9771 11.0671 18.0981 11.2526 18.3135C11.4382 18.5289 11.5424 18.821 11.5424 19.1255C11.5424 19.4301 11.4382 19.7222 11.2526 19.9376C11.0671 20.153 10.8154 20.274 10.553 20.274H5.27626C5.01386 20.274 4.7622 20.153 4.57665 19.9376C4.3911 19.7222 4.28687 19.4301 4.28687 19.1255ZM12.8616 19.1255C12.8616 18.821 12.9659 18.5289 13.1514 18.3135C13.337 18.0981 13.5886 17.9771 13.851 17.9771H15.8298C16.0922 17.9771 16.3439 18.0981 16.5294 18.3135C16.715 18.5289 16.8192 18.821 16.8192 19.1255C16.8192 19.4301 16.715 19.7222 16.5294 19.9376C16.3439 20.153 16.0922 20.274 15.8298 20.274H13.851C13.5886 20.274 13.337 20.153 13.1514 19.9376C12.9659 19.7222 12.8616 19.4301 12.8616 19.1255Z" fill="black"/>
</mask>
<g mask="url(#mask0_243_807)">
<path d="M-2.63867 -5.375H29.022V31.375H-2.63867V-5.375Z" fill="currentColor"/>
</g>
</svg>
