<svg width="26" height="24" viewBox="0 0 26 24" fill="none" xmlns="http://www.w3.org/2000/svg">
<path d="M24.4594 2.92008L22.7913 2.2334V13.3061L25.8163 6.1205C26.3267 4.86976 25.7416 3.43509 24.4594 2.92008ZM0.184675 7.45708L6.35916 22.1103C6.54098 22.5562 6.85112 22.9399 7.25143 23.2144C7.65174 23.4889 8.12478 23.6422 8.61235 23.6554C8.93602 23.6554 9.27213 23.5941 9.59579 23.4592L18.7704 19.7192C19.704 19.3391 20.2767 18.4317 20.3016 17.5243C20.314 17.2055 20.2518 16.8499 20.1397 16.5311L13.9154 1.8778C13.7395 1.42903 13.4305 1.04282 13.0286 0.769445C12.6267 0.496067 12.1506 0.34818 11.6623 0.345032C11.3386 0.345032 11.0149 0.418605 10.7037 0.528964L1.54157 4.26892C0.932539 4.51459 0.447479 4.98843 0.193031 5.58628C-0.0614162 6.18413 -0.0644218 6.85705 0.184675 7.45708ZM20.2891 2.79746C20.2891 2.14704 20.0268 1.52325 19.5599 1.06333C19.093 0.603412 18.4597 0.345032 17.7994 0.345032H15.9944L20.2891 10.5717" fill="currentColor"/>
</svg>
