<svg width="26" height="28" viewBox="0 0 26 28" fill="none" xmlns="http://www.w3.org/2000/svg">
<path d="M25.0271 5.70407C24.914 5.58778 24.7756 5.49376 24.6204 5.42789C24.4652 5.36202 24.2965 5.32571 24.125 5.32125C21.4608 5.2585 18.0896 2.69172 15.8607 1.68446C14.4839 1.06421 13.5749 0.655242 12.8923 0.547508C12.7537 0.529311 12.6129 0.529664 12.4744 0.548554C11.7918 0.656288 10.8828 1.06526 9.50719 1.68551C7.27829 2.69172 3.90708 5.2585 1.24285 5.32125C1.07123 5.32595 0.902519 5.36234 0.74716 5.4282C0.591801 5.49405 0.453108 5.58795 0.33968 5.70407C0.104569 5.94374 -0.0167362 6.25698 0.00186201 6.5764C0.574178 17.06 4.74756 23.5481 12.0704 27.3188C12.2608 27.416 12.4721 27.4662 12.6822 27.4662C12.8923 27.4662 13.1036 27.416 13.2952 27.3188C20.618 23.5481 24.7902 17.06 25.3637 6.5764C25.3834 6.25703 25.2624 5.94355 25.0271 5.70407ZM19.2041 9.82724L13.0247 18.0432C12.8029 18.3382 12.4547 18.5338 12.1099 18.5338C11.7639 18.5338 11.3797 18.3633 11.1371 18.1447L6.78143 14.2192C6.63922 14.0906 6.55938 13.9165 6.55938 13.7349C6.55938 13.5534 6.63922 13.3793 6.78143 13.2507L7.85757 12.279C8.0006 12.1513 8.19376 12.0797 8.39506 12.0797C8.59636 12.0797 8.78952 12.1513 8.93255 12.279L11.7651 14.8311L16.6861 8.28654C16.8 8.13678 16.975 8.03369 17.1729 7.99979C17.3708 7.96588 17.5756 8.00392 17.7425 8.10559L19.0021 8.87542C19.1685 8.97784 19.2831 9.13544 19.321 9.31378C19.3588 9.49213 19.3168 9.67672 19.2041 9.82724Z" fill="currentColor"/>
</svg>
