<svg width="26" height="28" viewBox="0 0 26 28" fill="none" xmlns="http://www.w3.org/2000/svg">
<path d="M12.6724 0.531499C13.7638 0.530377 14.8478 0.709537 15.8808 1.06174C14.9019 2.07382 14.2852 3.38133 14.127 4.78048C13.9688 6.17963 14.2779 7.59183 15.0061 8.79696C15.7343 10.0021 16.8408 10.9325 18.153 11.4431C19.4652 11.9537 20.9095 12.0158 22.2608 11.6198L22.5968 11.5092V15.4563C22.597 15.6207 22.6257 15.7838 22.6818 15.9383L22.7471 16.09L25.1799 20.9572C25.2927 21.1826 25.3491 21.432 25.3444 21.684C25.3396 21.936 25.2739 22.1831 25.1528 22.4042C25.0317 22.6252 24.8588 22.8136 24.649 22.9532C24.4391 23.0928 24.1986 23.1795 23.9479 23.2058L23.7849 23.2143H1.56C1.30787 23.2144 1.05948 23.1533 0.83612 23.0364C0.612758 22.9194 0.421081 22.75 0.277516 22.5428C0.133951 22.3355 0.0427774 22.0965 0.0118091 21.8463C-0.0191593 21.5961 0.0110007 21.3421 0.0997043 21.1061L0.164921 20.9572L2.59922 16.09C2.67239 15.9428 2.7194 15.784 2.73816 15.6208L2.74809 15.4577V10.4558C2.74809 7.82374 3.79368 5.29945 5.65486 3.43827C7.51603 1.5771 10.0403 0.531499 12.6724 0.531499ZM20.4701 1.94926C21.4102 1.94926 22.3117 2.32269 22.9764 2.9874C23.6411 3.6521 24.0145 4.55363 24.0145 5.49367C24.0145 6.43371 23.6411 7.33524 22.9764 7.99995C22.3117 8.66465 21.4102 9.03808 20.4701 9.03808C19.5301 9.03808 18.6286 8.66465 17.9638 7.99995C17.2991 7.33524 16.9257 6.43371 16.9257 5.49367C16.9257 4.55363 17.2991 3.6521 17.9638 2.9874C18.6286 2.32269 19.5301 1.94926 20.4701 1.94926ZM12.6724 27.469C11.7925 27.4693 10.9342 27.1967 10.2157 26.6889C9.49709 26.1811 8.95365 25.463 8.66016 24.6335H16.6847C16.3912 25.463 15.8478 26.1811 15.1292 26.6889C14.4106 27.1967 13.5523 27.4693 12.6724 27.469Z" fill="#6A6A6A"/>
</svg>
