<svg width="27" height="28" viewBox="0 0 27 28" fill="none" xmlns="http://www.w3.org/2000/svg">
<path fill-rule="evenodd" clip-rule="evenodd" d="M11.3007 0.812683C11.0509 0.812683 10.8393 0.996551 10.8044 1.24385L10.3764 4.27741C9.6522 4.48921 8.96154 4.77962 8.31409 5.13879L5.8669 3.28337C5.66736 3.13208 5.38677 3.15129 5.2097 3.32836L2.52771 6.01035C2.35111 6.18695 2.33148 6.46661 2.48167 6.66615L4.33221 9.12474C3.97445 9.77027 3.68445 10.4587 3.4718 11.1804L0.432901 11.5984C0.184825 11.6325 0 11.8445 0 12.0949V15.8878C0 16.1376 0.183868 16.3492 0.431163 16.3841L3.42265 16.8062C3.62868 17.5539 3.91735 18.2672 4.27822 18.9356L2.46985 21.3208C2.31856 21.5203 2.33777 21.8009 2.51484 21.978L5.19683 24.66C5.37342 24.8366 5.65309 24.8562 5.85263 24.706L8.18729 22.9488C8.87547 23.3435 9.6141 23.66 10.3911 23.886L10.7857 26.7548C10.8198 27.0029 11.0318 27.1877 11.2822 27.1877H15.0751C15.3249 27.1877 15.5365 27.0038 15.5714 26.7565L15.9727 23.9126C16.7635 23.6909 17.5153 23.3757 18.2155 22.9797L20.5081 24.7178C20.7076 24.8691 20.9882 24.8499 21.1653 24.6728L23.8473 21.9909C24.0239 21.8143 24.0435 21.5346 23.8933 21.3351L22.1404 19.0062C22.52 18.3161 22.8223 17.5774 23.0357 16.8017L25.9421 16.402C26.1902 16.3678 26.375 16.1559 26.375 15.9054V12.1125C26.375 11.8628 26.1911 11.6512 25.9438 11.6163L22.9909 11.1996C22.7716 10.45 22.469 9.73615 22.0937 9.06883L23.9051 6.67958C24.0564 6.48004 24.0372 6.19945 23.8602 6.02238L21.1782 3.34039C21.0016 3.1638 20.7219 3.14416 20.5224 3.29435L18.102 5.11615C17.4435 4.75485 16.7408 4.46448 16.0041 4.25531L15.5901 1.24558C15.556 0.997508 15.344 0.812683 15.0936 0.812683H11.3007ZM16.4506 14.0786C16.4506 15.8825 15.0034 17.3374 13.2276 17.3374C11.4517 17.3374 10.0045 15.8825 10.0045 14.0786C10.0045 12.2746 11.4517 10.8197 13.2276 10.8197C15.0034 10.8197 16.4506 12.2746 16.4506 14.0786Z" fill="currentColor"/>
</svg>
