<svg width="25" height="26" viewBox="0 0 25 26" fill="none" xmlns="http://www.w3.org/2000/svg">
<path fill-rule="evenodd" clip-rule="evenodd" d="M20.3125 0.25C21.5557 0.25 22.748 0.652988 23.6271 1.37031C24.5061 2.08763 25 3.06053 25 4.07498V24.4749C24.9998 24.715 24.9165 24.9502 24.7597 25.1534C24.6029 25.3566 24.379 25.5196 24.1136 25.6235C23.8483 25.7274 23.5525 25.7681 23.2601 25.7408C22.9677 25.7135 22.6907 25.6194 22.4609 25.4694L19.5312 23.5569L16.6016 25.4694C16.3014 25.6656 15.9231 25.7646 15.5391 25.7474C15.1551 25.7302 14.7924 25.5981 14.5203 25.3763L12.5 23.7277L10.4797 25.3763C10.2078 25.5983 9.84517 25.7306 9.46116 25.748C9.07715 25.7654 8.69877 25.6667 8.39844 25.4706L5.46875 23.5569L2.53906 25.4694C2.30933 25.6194 2.03233 25.7135 1.73994 25.7408C1.44755 25.7681 1.15167 25.7274 0.886358 25.6235C0.621047 25.5196 0.397095 25.3566 0.240285 25.1534C0.0834753 24.9502 0.000183813 24.715 0 24.4749V4.07498C0 3.06053 0.49386 2.08763 1.37294 1.37031C2.25201 0.652988 3.4443 0.25 4.6875 0.25H20.3125ZM12.5 12.9999H7.8125C7.3981 12.9999 7.00067 13.1343 6.70765 13.3734C6.41462 13.6125 6.25 13.9368 6.25 14.2749C6.25 14.6131 6.41462 14.9374 6.70765 15.1765C7.00067 15.4156 7.3981 15.5499 7.8125 15.5499H12.5C12.9144 15.5499 13.3118 15.4156 13.6049 15.1765C13.8979 14.9374 14.0625 14.6131 14.0625 14.2749C14.0625 13.9368 13.8979 13.6125 13.6049 13.3734C13.3118 13.1343 12.9144 12.9999 12.5 12.9999ZM17.1875 7.89996H7.8125C7.41425 7.90032 7.0312 8.02475 6.74161 8.24784C6.45202 8.47092 6.27776 8.77582 6.25442 9.10023C6.23108 9.42464 6.36043 9.74408 6.61604 9.99328C6.87165 10.2425 7.23423 10.4026 7.62969 10.441L7.8125 10.4499H17.1875C17.5857 10.4496 17.9688 10.3251 18.2584 10.1021C18.548 9.87898 18.7222 9.57408 18.7456 9.24967C18.7689 8.92526 18.6396 8.60582 18.384 8.35662C18.1284 8.10742 17.7658 7.94726 17.3703 7.90888L17.1875 7.89996Z" fill="currentColor"/>
</svg>
