<svg width="28" height="26" viewBox="0 0 28 26" fill="none" xmlns="http://www.w3.org/2000/svg">
<path d="M3.94041 5.61172C3.94041 4.17476 4.51124 2.79666 5.52732 1.78058C6.5434 0.764494 7.92151 0.193665 9.35846 0.193665C10.7954 0.193665 12.1735 0.764494 13.1896 1.78058C14.2057 2.79666 14.7765 4.17476 14.7765 5.61172C14.7765 7.04868 14.2057 8.42679 13.1896 9.44287C12.1735 10.459 10.7954 11.0298 9.35846 11.0298C7.92151 11.0298 6.5434 10.459 5.52732 9.44287C4.51124 8.42679 3.94041 7.04868 3.94041 5.61172ZM16.7467 8.56703C16.7467 7.98488 16.8614 7.40844 17.0842 6.87061C17.3069 6.33278 17.6335 5.84409 18.0451 5.43245C18.4567 5.02081 18.9454 4.69429 19.4833 4.47151C20.0211 4.24873 20.5975 4.13407 21.1797 4.13407C21.7618 4.13407 22.3383 4.24873 22.8761 4.47151C23.4139 4.69429 23.9026 5.02081 24.3143 5.43245C24.7259 5.84409 25.0524 6.33278 25.2752 6.87061C25.498 7.40844 25.6126 7.98488 25.6126 8.56703C25.6126 9.74272 25.1456 10.8703 24.3143 11.7016C23.4829 12.5329 22.3554 13 21.1797 13C20.004 13 18.8764 12.5329 18.0451 11.7016C17.2138 10.8703 16.7467 9.74272 16.7467 8.56703ZM0 22.3584C3.6985e-08 19.8764 0.985978 17.4961 2.74103 15.741C4.49608 13.986 6.87644 13 9.35846 13C11.8405 13 14.2208 13.986 15.9759 15.741C17.7309 17.4961 18.7169 19.8764 18.7169 22.3584V22.3624L18.7156 22.5187C18.7128 22.6857 18.6676 22.8493 18.5842 22.9941C18.5008 23.1388 18.3819 23.26 18.2388 23.3462C15.5583 24.9604 12.4875 25.8111 9.35846 25.8063C6.11157 25.8063 3.0722 24.9079 0.479416 23.3462C0.336052 23.2602 0.216942 23.1391 0.133299 22.9943C0.0496573 22.8495 0.00423638 22.6859 0.00131353 22.5187L0 22.3584ZM20.6871 22.3624L20.6858 22.5515C20.6785 22.9893 20.5739 23.42 20.3798 23.8125C22.6727 23.9539 24.963 23.4967 27.0259 22.4859C27.1855 22.4079 27.321 22.2882 27.4181 22.1395C27.5152 21.9909 27.5703 21.8187 27.5776 21.6413C27.624 20.5396 27.385 19.4446 26.884 18.4624C26.3829 17.4801 25.6367 16.6439 24.7176 16.0348C23.7985 15.4256 22.7376 15.0641 21.6378 14.9853C20.5379 14.9064 19.4364 15.113 18.4398 15.5849C19.9019 17.5401 20.6901 19.917 20.6858 22.3584L20.6871 22.3624Z" fill="currentColor"/>
</svg>
